<?xml version="1.0" encoding="utf-8"?>
<!-- Generator: Adobe Illustrator 19.2.1, SVG Export Plug-In . SVG Version: 6.00 Build 0)  -->
<svg version="1.1" id="Layer_1" xmlns="http://www.w3.org/2000/svg" xmlns:xlink="http://www.w3.org/1999/xlink" x="0px" y="0px"
	 viewBox="0 0 100 125" style="enable-background:new 0 0 100 125;" xml:space="preserve">
<path d="M85.4,11.1h-8.3v-3c0-2.5-2.1-4.6-4.6-4.6h-3.3c-2.5,0-4.6,2.1-4.6,4.6v3H35.3v-3c0-2.5-2.1-4.6-4.6-4.6h-3.3
	c-2.5,0-4.6,2.1-4.6,4.6v3h-8.2c-6.7,0-12.1,5.4-12.1,12.1v61.2c0,6.7,5.4,12.1,12.1,12.1h46.9c5.7,0,11.1-2.2,15.2-6.3l14.5-14.5
	l0,0c4.1-4.1,6.3-9.5,6.3-15.2V23.2C97.5,16.6,92.1,11.1,85.4,11.1z M10,84.4V35.5h80v24.4H70.7c-5.4,0-9.8,4.4-9.8,9.8V89H14.6
	C12.1,89,10,86.9,10,84.4z M71.4,84.9c-0.9,0.9-1.9,1.6-3,2.2V69.7c0-1.3,1-2.3,2.3-2.3h17.4c-0.6,1.1-1.3,2.1-2.2,3L71.4,84.9z"/>
</svg>
