<svg id="Layer_1" data-name="Layer 1" xmlns="http://www.w3.org/2000/svg" viewBox="0 0 68.9 91"><title>colombia</title><polygon points="36.9 4 38.8 4 40.6 2.2 38.3 0 36.6 0 28.7 7.8 22.5 7.8 22.5 10.3 20.9 10.3 20.1 9.5 19 9.5 15.4 13 15.4 19.2 13.6 19.2 8.4 24.4 10.3 26.4 10.3 28.2 9.3 28.2 9.3 27.6 6.1 24.4 6.1 25.7 8.2 27.8 3.6 32.3 7.3 36 7.3 39.4 8.2 40.3 6.5 42 7.8 43.3 7.8 49.5 9.9 51.6 9.9 53.3 7.2 56 7.2 57.6 6.1 58.6 3.7 58.6 2 60.3 2 62.1 3 63.1 2.3 63.7 1 63.7 0 64.8 2.1 66.9 4.1 66.9 6 68.7 9 68.7 11 70.7 15.4 70.7 16.5 69.6 17.6 69.6 19.6 71.5 25.7 71.5 33.5 79.3 35.5 79.3 35.5 82.3 41.1 82.3 42.7 80.7 51.4 80.7 53.5 82.8 51.6 84.7 51.6 89.2 53.2 89.2 55 91 55 85.9 55.9 85 55.9 73.1 51.6 68.8 51.6 64.5 52.8 63.3 56.6 63.3 56.6 61.2 52.8 61.2 52.8 57.6 61.1 57.6 61.1 55.5 61.8 55.5 63 56.7 65.1 54.6 67.6 57.1 67.6 59.3 68.9 59.3 68.9 56.1 63.2 50.4 65.7 47.9 65.7 46 62.4 42.7 62.4 36.7 63.7 35.4 63.7 33.9 64.7 32.9 64.7 31.5 60.3 31.5 59.2 32.5 52.1 32.5 48.4 28.8 44.6 28.8 43.4 29.9 38.1 29.9 35.3 27.1 35.3 22.7 31 18.4 29.8 19.6 28.8 18.6 30.6 16.8 30.6 10.5 36.9 4"/></svg>