<svg id="Layer_1" data-name="Layer 1" xmlns="http://www.w3.org/2000/svg" viewBox="0 0 337.18 209.59"><defs><style>.cls-1{fill:none;stroke:#000;stroke-linejoin:round;stroke-width:14px;}</style></defs><title>gender</title><g id="Slide_1_page1" data-name="Slide 1 page1"><path d="M148.82,224.94l-1.64-.06-1.56-.14-1.56-.23-1.47-.37-1.47-.43-1.45-.57-1.45-.68-1.45-.77-1.39-.85-1.3-.91-1.19-1-1.13-1-1-1.13-1-1.19-0.91-1.3L128,212.89l-0.77-1.45L126.51,210l-0.57-1.45-0.43-1.47-0.37-1.47L124.92,204l-0.14-1.56-0.06-1.64,0.06-1.64,0.14-1.56,0.23-1.56,0.37-1.47,0.43-1.47,0.57-1.45,0.68-1.45L128,188.8l0.85-1.39,0.91-1.3,1-1.19,1-1.13,1.13-1,1.19-1,1.3-.91,1.39-.85,1.45-.77,1.45-.68,1.45-.57,1.47-.43,1.47-.37,1.56-.23,1.56-.14,1.64-.06,1.64,0.06,1.56,0.14,1.56,0.23,1.47,0.37,1.47,0.43,1.45,0.57,1.45,0.68,1.45,0.77,1.39,0.85,1.3,0.91,1.19,1,1.13,1,1,1.13,1,1.19,0.91,1.3,0.85,1.39,0.77,1.45,0.68,1.45,0.57,1.45,0.43,1.47,0.37,1.47,0.23,1.56,0.14,1.56,0.06,1.64-0.06,1.64L172.71,204l-0.23,1.56-0.37,1.47-0.43,1.47L171.13,210l-0.68,1.45-0.77,1.45-0.85,1.39-0.91,1.3-1,1.19-1,1.13-1.13,1-1.19,1-1.3.91-1.39.85-1.45.77-1.45.68-1.45.57-1.47.43-1.47.37-1.56.23-1.56.14-1.64.06h0Zm121.89,0-1.64-.06-1.56-.14-1.56-.23-1.47-.37-1.47-.43-1.45-.57-1.45-.68-1.45-.77-1.39-.85-1.3-.91-1.19-1-1.13-1-1-1.13-1-1.19-0.91-1.3-0.85-1.39-0.77-1.45L248.4,210l-0.57-1.45-0.43-1.47L247,205.6,246.81,204l-0.14-1.56-0.06-1.64,0.06-1.64,0.14-1.56,0.23-1.56,0.37-1.47,0.43-1.47,0.57-1.45,0.68-1.45,0.77-1.45,0.85-1.39,0.91-1.3,1-1.19,1-1.13,1.13-1,1.19-1,1.3-.91,1.39-.85,1.45-.77,1.45-.68L263,178l1.47-.43,1.47-.37,1.56-.23,1.56-.14,1.64-.06,1.64,0.06,1.56,0.14,1.56,0.23,1.47,0.37,1.47,0.43,1.45,0.57,1.45,0.68,1.45,0.77,1.39,0.85,1.3,0.91,1.19,1,1.13,1,1,1.13,1,1.19,0.91,1.3,0.85,1.39,0.77,1.45,0.68,1.45,0.57,1.45,0.43,1.47,0.37,1.47,0.23,1.56,0.14,1.56,0.06,1.64-0.06,1.64L294.6,204l-0.23,1.56L294,207.08l-0.43,1.47L293,210l-0.68,1.45-0.77,1.45-0.85,1.39-0.91,1.3-1,1.19-1,1.13-1.13,1-1.19,1-1.3.91-1.39.85-1.45.77-1.45.68-1.45.57-1.47.43-1.47.37-1.56.23-1.56.14-1.64.06h0Zm121.89,0-1.64-.06-1.56-.14-1.56-.23-1.47-.37-1.47-.43-1.45-.57-1.45-.68-1.45-.77-1.39-.85-1.3-.91-1.19-1-1.13-1-1-1.13-1-1.19-0.91-1.3-0.85-1.39L371,211.44,370.29,210l-0.57-1.45-0.43-1.47-0.37-1.47L368.7,204l-0.14-1.56-0.06-1.64,0.06-1.64,0.14-1.56,0.23-1.56,0.37-1.47,0.43-1.47,0.57-1.45,0.68-1.45,0.77-1.45,0.85-1.39,0.91-1.3,1-1.19,1-1.13,1.13-1,1.19-1,1.3-.91,1.39-.85,1.45-.77,1.45-.68,1.45-.57,1.47-.43,1.47-.37,1.56-.23,1.56-.14,1.64-.06,1.64,0.06,1.56,0.14,1.56,0.23,1.47,0.37,1.47,0.43,1.45,0.57,1.45,0.68,1.45,0.77,1.39,0.85,1.3,0.91,1.19,1,1.13,1,1,1.13,1,1.19,0.91,1.3,0.85,1.39,0.77,1.45,0.68,1.45,0.57,1.45,0.43,1.47,0.37,1.47,0.23,1.56,0.14,1.56,0.06,1.64-0.06,1.64L416.49,204l-0.23,1.56-0.37,1.47-0.43,1.47L414.91,210l-0.68,1.45-0.77,1.45-0.85,1.39-0.91,1.3-1,1.19-1,1.13-1.13,1-1.19,1-1.3.91-1.39.85-1.45.77-1.45.68-1.45.57-1.47.43-1.47.37-1.56.23-1.56.14-1.64.06h0ZM107.72,372.34h79.4L169.23,253.26H125.57ZM354.33,250.45h76.56L407.82,366.7H377.38ZM235.28,276V250.45h70.87V276H235.28Zm0,45.35V295.8h70.87v25.51H235.28Zm0,48.19V344h70.87V369.5H235.28Z" transform="translate(-100.72 -169.75)"/><path id="Drawing_1_0" data-name="Drawing 1 0" class="cls-1" d="M148.82,224.94l-1.64-.06-1.56-.14-1.56-.23-1.47-.37-1.47-.43-1.45-.57-1.45-.68-1.45-.77-1.39-.85-1.3-.91-1.19-1-1.13-1-1-1.13-1-1.19-0.91-1.3L128,212.89l-0.77-1.45L126.51,210l-0.57-1.45-0.43-1.47-0.37-1.47L124.92,204l-0.14-1.56-0.06-1.64,0.06-1.64,0.14-1.56,0.23-1.56,0.37-1.47,0.43-1.47,0.57-1.45,0.68-1.45L128,188.8l0.85-1.39,0.91-1.3,1-1.19,1-1.13,1.13-1,1.19-1,1.3-.91,1.39-.85,1.45-.77,1.45-.68,1.45-.57,1.47-.43,1.47-.37,1.56-.23,1.56-.14,1.64-.06,1.64,0.06,1.56,0.14,1.56,0.23,1.47,0.37,1.47,0.43,1.45,0.57,1.45,0.68,1.45,0.77,1.39,0.85,1.3,0.91,1.19,1,1.13,1,1,1.13,1,1.19,0.91,1.3,0.85,1.39,0.77,1.45,0.68,1.45,0.57,1.45,0.43,1.47,0.37,1.47,0.23,1.56,0.14,1.56,0.06,1.64-0.06,1.64L172.71,204l-0.23,1.56-0.37,1.47-0.43,1.47L171.13,210l-0.68,1.45-0.77,1.45-0.85,1.39-0.91,1.3-1,1.19-1,1.13-1.13,1-1.19,1-1.3.91-1.39.85-1.45.77-1.45.68-1.45.57-1.47.43-1.47.37-1.56.23-1.56.14-1.64.06h0Z" transform="translate(-100.72 -169.75)"/><path id="Drawing_1_1" data-name="Drawing 1 1" class="cls-1" d="M270.71,224.94l-1.64-.06-1.56-.14-1.56-.23-1.47-.37-1.47-.43-1.45-.57-1.45-.68-1.45-.77-1.39-.85-1.3-.91-1.19-1-1.13-1-1-1.13-1-1.19-0.91-1.3-0.85-1.39-0.77-1.45L248.4,210l-0.57-1.45-0.43-1.47L247,205.6,246.81,204l-0.14-1.56-0.06-1.64,0.06-1.64,0.14-1.56,0.23-1.56,0.37-1.47,0.43-1.47,0.57-1.45,0.68-1.45,0.77-1.45,0.85-1.39,0.91-1.3,1-1.19,1-1.13,1.13-1,1.19-1,1.3-.91,1.39-.85,1.45-.77,1.45-.68L263,178l1.47-.43,1.47-.37,1.56-.23,1.56-.14,1.64-.06,1.64,0.06,1.56,0.14,1.56,0.23,1.47,0.37,1.47,0.43,1.45,0.57,1.45,0.68,1.45,0.77,1.39,0.85,1.3,0.91,1.19,1,1.13,1,1,1.13,1,1.19,0.91,1.3,0.85,1.39,0.77,1.45,0.68,1.45,0.57,1.45,0.43,1.47,0.37,1.47,0.23,1.56,0.14,1.56,0.06,1.64-0.06,1.64L294.6,204l-0.23,1.56L294,207.08l-0.43,1.47L293,210l-0.68,1.45-0.77,1.45-0.85,1.39-0.91,1.3-1,1.19-1,1.13-1.13,1-1.19,1-1.3.91-1.39.85-1.45.77-1.45.68-1.45.57-1.47.43-1.47.37-1.56.23-1.56.14-1.64.06h0Z" transform="translate(-100.72 -169.75)"/><path id="Drawing_1_2" data-name="Drawing 1 2" class="cls-1" d="M392.6,224.94l-1.64-.06-1.56-.14-1.56-.23-1.47-.37-1.47-.43-1.45-.57-1.45-.68-1.45-.77-1.39-.85-1.3-.91-1.19-1-1.13-1-1-1.13-1-1.19-0.91-1.3-0.85-1.39L371,211.44,370.29,210l-0.57-1.45-0.43-1.47-0.37-1.47L368.7,204l-0.14-1.56-0.06-1.64,0.06-1.64,0.14-1.56,0.23-1.56,0.37-1.47,0.43-1.47,0.57-1.45,0.68-1.45,0.77-1.45,0.85-1.39,0.91-1.3,1-1.19,1-1.13,1.13-1,1.19-1,1.3-.91,1.39-.85,1.45-.77,1.45-.68,1.45-.57,1.47-.43,1.47-.37,1.56-.23,1.56-.14,1.64-.06,1.64,0.06,1.56,0.14,1.56,0.23,1.47,0.37,1.47,0.43,1.45,0.57,1.45,0.68,1.45,0.77,1.39,0.85,1.3,0.91,1.19,1,1.13,1,1,1.13,1,1.19,0.91,1.3,0.85,1.39,0.77,1.45,0.68,1.45,0.57,1.45,0.43,1.47,0.37,1.47,0.23,1.56,0.14,1.56,0.06,1.64-0.06,1.64L416.49,204l-0.23,1.56-0.37,1.47-0.43,1.47L414.91,210l-0.68,1.45-0.77,1.45-0.85,1.39-0.91,1.3-1,1.19-1,1.13-1.13,1-1.19,1-1.3.91-1.39.85-1.45.77-1.45.68-1.45.57-1.47.43-1.47.37-1.56.23-1.56.14-1.64.06h0Z" transform="translate(-100.72 -169.75)"/><path id="Drawing_1_3" data-name="Drawing 1 3" class="cls-1" d="M107.72,372.34h79.4L169.23,253.26H125.57Z" transform="translate(-100.72 -169.75)"/><path id="Drawing_1_4" data-name="Drawing 1 4" class="cls-1" d="M354.33,250.45h76.56L407.82,366.7H377.38Z" transform="translate(-100.72 -169.75)"/><path id="Drawing_1_5" data-name="Drawing 1 5" class="cls-1" d="M235.28,276V250.45h70.87V276H235.28Z" transform="translate(-100.72 -169.75)"/><path id="Drawing_1_6" data-name="Drawing 1 6" class="cls-1" d="M235.28,322.31V296.8h70.87v25.51H235.28Z" transform="translate(-100.72 -169.75)"/><path id="Drawing_1_7" data-name="Drawing 1 7" class="cls-1" d="M235.28,369.5V344h70.87V369.5H235.28Z" transform="translate(-100.72 -169.75)"/></g></svg>