<?xml version="1.0" encoding="utf-8"?>
<!-- Generator: Adobe Illustrator 19.2.1, SVG Export Plug-In . SVG Version: 6.00 Build 0)  -->
<svg version="1.1" id="Layer_1" xmlns="http://www.w3.org/2000/svg" xmlns:xlink="http://www.w3.org/1999/xlink" x="0px" y="0px"
	 viewBox="0 0 500 700" style="enable-background:new 0 0 500 700;" xml:space="preserve">
<style type="text/css">
	.st0{fill:#F9EF6B;}
	.st1{fill:#FFFFFF;}
	.st2{font-family:'BebasNeue-Regular';}
	.st3{font-size:126.6837px;}
	.st4{opacity:0.11;fill:#F9EF6B;enable-background:new    ;}
	.st5{opacity:0.41;}
	.st6{fill:#EE3C96;}
	.st7{opacity:0.59;}
</style>
<path class="st0" d="M19.9-0.1h460.3c11.1,0,20.1,9,20.1,20.1V680c0,11.1-9,20.1-20.1,20.1H19.9c-11.1,0-20.1-9-20.1-20.1V20
	C-0.2,8.9,8.8-0.1,19.9-0.1z"/>
<g>
	<polygon points="267.7,319.9 273.4,319.9 278.9,314.4 271.9,307.8 266.7,307.8 242.8,331.6 223.9,331.6 223.9,339.2 219.1,339.3 
		216.6,336.8 213.3,336.8 202.4,347.5 202.4,366.4 197,366.4 181.2,382.3 187,388.3 187,393.8 184,393.8 184,392 174.2,382.3 
		174.2,386.2 180.6,392.6 166.7,406.3 178,417.5 178,427.9 180.7,430.6 175.6,435.8 179.6,439.7 179.6,458.6 186,465 186,470.1 
		177.9,478.4 177.9,483.2 174.5,486.3 167.2,486.3 162.1,491.5 162.1,497 165.2,500 163,501.8 159.1,501.9 156,505.2 162.5,511.6 
		168.5,511.6 174.3,517 183.5,517 189.6,523 202.9,523 206.3,519.6 209.6,519.6 215.7,525.4 234.3,525.3 258.1,549 264.2,549 
		264.2,558.1 281.2,558 286.1,553.1 312.5,553 318.9,559.4 313.2,565.2 313.2,578.9 318.1,578.9 323.6,584.3 323.5,568.8 
		326.2,566.1 326.1,529.9 313,516.9 313,503.8 316.6,500.1 328.2,500.1 328.1,493.7 316.6,493.7 316.5,482.8 341.8,482.7 
		341.8,476.3 343.9,476.3 347.6,479.9 353.9,473.5 361.6,481.1 361.6,487.8 365.5,487.8 365.5,478.1 348.1,460.8 355.7,453.2 
		355.7,447.4 345.6,437.4 345.5,419.1 349.5,415.2 349.5,410.6 352.5,407.5 352.5,403.3 339.1,403.3 335.8,406.4 314.2,406.5 
		302.9,395.2 291.3,395.3 287.7,398.6 271.6,398.7 263,390.2 263,376.8 249.9,363.8 246.2,367.4 243.2,364.4 248.6,358.9 
		248.6,339.8 	"/>
	<polygon class="st1" points="262.7,311.7 268.5,311.7 274,306.2 267,299.5 261.8,299.5 237.8,323.3 219,323.4 219,331 214.1,331 
		211.7,328.6 208.4,328.6 197.4,339.3 197.5,358.1 192,358.1 176.3,374 182.1,380.1 182.1,385.5 179,385.6 179,383.7 169.3,374 
		169.3,378 175.7,384.4 161.8,398.1 173,409.3 173.1,419.6 175.8,422.4 170.7,427.6 174.6,431.5 174.7,450.4 181.1,456.7 
		181.1,461.9 172.9,470.1 173,475 169.6,478 162.3,478.1 157.2,483.3 157.2,488.7 160.2,491.8 158.1,493.6 154.2,493.6 151.1,497 
		157.5,503.3 163.6,503.3 169.4,508.8 178.5,508.7 184.6,514.8 198,514.7 201.4,511.4 204.7,511.4 210.8,517.1 229.4,517.1 
		253.1,540.7 259.2,540.7 259.3,549.8 276.3,549.8 281.1,544.9 307.6,544.8 314,551.2 308.2,557 308.3,570.7 313.2,570.6 
		318.7,576.1 318.6,560.6 321.3,557.8 321.2,521.6 308.1,508.6 308,495.5 311.7,491.9 323.2,491.8 323.2,485.4 311.7,485.5 
		311.6,474.5 336.9,474.5 336.8,468.1 339,468.1 342.6,471.7 349,465.3 356.6,472.9 356.7,479.6 360.6,479.5 360.6,469.8 
		343.2,452.5 350.8,444.9 350.7,439.1 340.7,429.1 340.6,410.9 344.6,406.9 344.5,402.4 347.6,399.3 347.6,395 334.2,395.1 
		330.8,398.1 309.2,398.2 298,387 286.4,387 282.8,390.4 266.6,390.4 258.1,382 258.1,368.6 244.9,355.5 241.3,359.2 238.3,356.2 
		243.7,350.7 243.6,331.5 	"/>
</g>
<text transform="matrix(0.9915 0 0 1 50.6499 171.1211)" class="st2 st3">GEOGRAFíA</text>
<path class="st4" d="M19.9-0.1h460.2c11.1,0,20.1,9,20.1,20.1v659.9c0,11.1-9,20.1-20.1,20.1H19.9c-11.1,0-20.1-9-20.1-20.1V20
	C-0.2,8.9,8.8-0.1,19.9-0.1z"/>
<text transform="matrix(0.9915 0 0 1 43.1509 166.2842)" class="st1 st2 st3">GEOGRAFíA</text>
<g class="st5">
	<path class="st6" d="M345.6,346.9c-0.9-0.2-1.9-0.4-2.8-0.6c-1-0.3-2-0.7-3.1-0.9c-3.8-1-7.5-2.4-10.9-4.4
		c-7.2-4.3-8.2-10.2-6.1-17.5c1-3.6,3.9-5.5,7.5-6.3c2.5-0.5,5.1-1,7.6-1.5c0.8-0.2,1.6-0.5,2.5-0.8c-0.9,2.4-1.7,4.6-2.5,6.9
		c-0.1,0.3,0.1,1,0.3,1.2c0.9,0.9,1.9,1.7,2.9,2.4c6.1,4.1,13,6.4,20,8.1c7.7,1.9,15.5,3.3,23.4,3.8c4.9,0.3,9.9,0.3,14.9,0.4
		c0.7,0,1.1-0.2,1.3-1c0.7-3.4,1.6-6.7,2.3-10.1c0-0.2,0-0.4,0-0.7c-0.6,0-1.2-0.1-1.8-0.1c-6-0.9-12-1.7-18-2.8
		c-10.5-2-20.8-4.6-30.6-9c-3.2-1.5-6.3-3.3-9.4-4.9c0.7-1.5,1.3-2.7,1.8-3.9c2.5-5.2,4.9-10.4,8.3-15.1c1.3-1.7,2.9-3.6,4.7-4.4
		c6.5-2.8,13-2.5,19.1,1.6c3.1,2.1,6.3,3.7,10,4.1c1.6,0.1,3.3,0.2,4.9,0.3c3.4,0.3,6.4,1.5,8.8,4c3.5,3.7,4.2,8.2,3.9,13.1
		c-0.4,4.7-0.8,9.4-1.1,14.1c0,0.3,0.4,0.9,0.8,1.1c0.9,0.4,1.8,0.6,2.7,0.9c3.7,1.5,7.1,3.5,9.7,6.5c3.5,4,3.1,8.2-1,11.5
		c-3.4,2.8-7.4,4.5-11.7,5.1c-5.2,0.8-10.5,1.3-15.7,1.8c-13.9,1.2-27.6,0.5-41.3-2.4C346.5,347,346.1,347,345.6,346.9z"/>
</g>
<g class="st7">
	<path class="st6" d="M117.9,354.5c-0.4,0-0.8,0.1-1.2,0.1c-0.4,0-0.9,0-1.3,0c-1.6,0-3.2-0.1-4.8-0.6c-3.3-1-4.4-3.4-4.4-6.9
		c0-1.7,0.9-2.9,2.2-3.7c0.9-0.5,1.9-1.1,2.8-1.6c0.3-0.2,0.6-0.4,0.9-0.7c-0.1,1.2-0.1,2.2-0.1,3.3c0,0.2,0.1,0.4,0.3,0.5
		c0.5,0.3,0.9,0.5,1.4,0.7c2.9,1,5.8,1.2,8.7,1.1c3.2-0.1,6.4-0.5,9.5-1.3c2-0.5,3.9-1.1,5.8-1.7c0.3-0.1,0.4-0.2,0.4-0.6
		c-0.1-1.6-0.2-3.1-0.3-4.7c0-0.1,0-0.2-0.1-0.3c-0.3,0.1-0.5,0.1-0.7,0.2c-2.4,0.3-4.9,0.8-7.3,1c-4.3,0.4-8.6,0.6-13-0.1
		c-1.4-0.2-2.8-0.6-4.3-1c0.1-0.7,0.2-1.3,0.3-1.9c0.4-2.6,0.7-5.2,1.5-7.6c0.3-0.9,0.7-1.9,1.3-2.5c2.2-2.1,4.8-2.7,7.6-1.7
		c1.4,0.5,2.9,0.8,4.4,0.5c0.6-0.1,1.3-0.3,1.9-0.5c1.4-0.3,2.7-0.1,3.9,0.6c1.8,1.2,2.6,3.1,3,5.2s0.8,4.2,1.2,6.3
		c0,0.2,0.3,0.3,0.4,0.4c0.4,0.1,0.8,0,1.2,0.1c1.6,0.2,3.2,0.6,4.5,1.6c1.8,1.3,2.2,3.2,1,5.1c-1,1.6-2.4,2.9-4,3.7
		c-1.9,1-3.9,1.9-5.9,2.7c-5.3,2.2-10.7,3.6-16.3,4.1C118.2,354.3,118.1,354.4,117.9,354.5z"/>
</g>
<g class="st5">
	<path class="st6" d="M365.8,436c-0.6-0.4-1.2-0.7-1.8-1.1c-0.6-0.5-1.3-0.9-1.9-1.4c-2.4-1.6-4.6-3.4-6.5-5.6
		c-3.9-4.6-3.3-9-0.1-13.5c1.5-2.2,4-2.9,6.6-2.6c1.9,0.2,3.7,0.5,5.6,0.7c0.6,0.1,1.2,0,1.9,0c-1.2,1.5-2.3,2.8-3.3,4.2
		c-0.2,0.2-0.2,0.7-0.1,0.9c0.4,0.8,0.9,1.6,1.5,2.3c3.2,4.3,7.4,7.4,11.9,10.3c4.8,3.1,9.9,5.9,15.2,8c3.3,1.3,6.8,2.5,10.1,3.7
		c0.5,0.2,0.8,0.1,1.1-0.4c1.3-2.1,2.6-4.3,3.9-6.4c0.1-0.1,0.1-0.3,0.1-0.5c-0.4-0.2-0.8-0.3-1.2-0.5c-3.9-2-7.9-4-11.7-6.1
		c-6.7-3.8-13.3-8-18.9-13.4c-1.9-1.8-3.6-3.7-5.3-5.6c0.8-0.9,1.5-1.6,2.2-2.3c2.9-3,5.8-6.1,9.3-8.4c1.3-0.9,2.8-1.8,4.3-1.9
		c5.2-0.4,9.6,1.3,12.7,5.5c1.6,2.2,3.5,4,6,5.1c1.1,0.5,2.2,0.9,3.3,1.3c2.3,1,4.1,2.6,5.1,4.8c1.6,3.3,1,6.7-0.4,9.9
		c-1.4,3.2-2.8,6.3-4.1,9.5c-0.1,0.2,0.1,0.7,0.3,0.9c0.5,0.5,1.1,0.8,1.6,1.3c2.2,1.9,4,4,5.2,6.7c1.5,3.6,0.2,6.4-3.4,7.7
		c-3,1.1-6.1,1.3-9.3,0.8c-3.8-0.7-7.5-1.5-11.2-2.5c-9.8-2.4-19.1-6.1-27.9-11.3C366.5,436.2,366.1,436.1,365.8,436z"/>
</g>
<g class="st7">
	<path class="st6" d="M192.6,293.9c0.8-0.3,1.7-0.5,2.5-0.8c0.9-0.4,1.8-0.8,2.7-1.1c3.4-1.3,6.6-2.8,9.5-5
		c6.1-4.6,6.4-10.4,3.8-17.2c-1.3-3.3-4.1-5-7.5-5.4c-2.4-0.3-4.7-0.6-7.1-0.9c-0.8-0.1-1.5-0.4-2.4-0.6c1,2.2,2,4.3,2.9,6.4
		c0.1,0.3,0,0.9-0.2,1.2c-0.8,0.9-1.6,1.8-2.4,2.5c-5.1,4.4-11.1,7.1-17.4,9.3c-6.8,2.4-13.7,4.3-20.9,5.3c-4.5,0.6-9,1-13.5,1.4
		c-0.6,0.1-1-0.1-1.3-0.9c-1-3.2-2.1-6.3-3.1-9.4c-0.1-0.2,0-0.4-0.1-0.6c0.6-0.1,1.1-0.1,1.6-0.3c5.4-1.3,10.8-2.5,16.1-4.1
		c9.3-2.7,18.5-5.9,26.9-10.9c2.8-1.7,5.4-3.6,8.1-5.4c-0.8-1.4-1.4-2.5-2.1-3.6c-2.8-4.8-5.5-9.6-9.1-13.8c-1.4-1.5-3-3.2-4.8-3.9
		c-6.2-2.2-12.1-1.4-17.2,2.9c-2.6,2.2-5.3,4-8.7,4.6c-1.5,0.3-2.9,0.4-4.4,0.6c-3.1,0.5-5.7,1.9-7.6,4.5c-2.8,3.8-3,8.2-2.2,12.8
		c0.8,4.5,1.7,8.9,2.5,13.4c0.1,0.3-0.3,0.9-0.6,1.1c-0.7,0.4-1.6,0.7-2.4,1.1c-3.2,1.7-6.1,3.9-8.2,6.9c-2.8,4.1-2,8.1,2.1,10.9
		c3.4,2.4,7.2,3.7,11.2,4c4.8,0.4,9.7,0.5,14.5,0.5c12.7,0.1,25.2-1.6,37.3-5.4C191.7,294,192.2,294,192.6,293.9z"/>
</g>
<g class="st7">
	<path class="st6" d="M413.7,387.6c-0.3-0.2-0.6-0.4-1-0.7c-0.3-0.3-0.7-0.6-1-0.8c-1.3-1-2.4-2.1-3.4-3.4c-2-2.8-1.3-5.4,0.8-8.1
		c1-1.3,2.5-1.7,4-1.5c1.1,0.1,2.1,0.3,3.2,0.4c0.3,0,0.7,0,1.1,0c-0.8,0.9-1.5,1.7-2.2,2.5c-0.1,0.1-0.1,0.4-0.1,0.5
		c0.2,0.5,0.4,1,0.7,1.4c1.6,2.6,3.8,4.5,6.2,6.2c2.6,1.9,5.3,3.6,8.3,4.9c1.8,0.8,3.7,1.5,5.6,2.3c0.3,0.1,0.5,0.1,0.7-0.2
		c0.9-1.3,1.8-2.6,2.7-3.8c0-0.1,0.1-0.2,0.1-0.3c-0.2-0.1-0.5-0.2-0.7-0.3c-2.1-1.2-4.3-2.4-6.4-3.7c-3.6-2.3-7.2-4.9-10.1-8.1
		c-1-1.1-1.8-2.3-2.7-3.4c0.5-0.5,1-1,1.4-1.4c1.9-1.8,3.7-3.6,5.9-5.1c0.8-0.5,1.7-1.1,2.6-1.2c3-0.2,5.4,0.8,7,3.4
		c0.8,1.3,1.7,2.4,3.1,3.1c0.6,0.3,1.2,0.5,1.8,0.8c1.3,0.6,2.2,1.6,2.7,2.9c0.7,2,0.2,4-0.8,6c-1,1.9-2,3.8-2.9,5.7
		c-0.1,0.1,0,0.4,0.1,0.5c0.3,0.3,0.6,0.5,0.9,0.8c1.1,1.2,2.1,2.5,2.6,4.1c0.6,2.1-0.3,3.8-2.4,4.6c-1.8,0.7-3.6,0.8-5.4,0.4
		c-2.1-0.4-4.2-1-6.3-1.5c-5.5-1.5-10.7-3.8-15.4-6.9C414.1,387.7,413.9,387.7,413.7,387.6z"/>
</g>
<g class="st5">
	<path class="st6" d="M121.1,601.2c-0.9-0.2-1.8-0.5-2.7-0.7c-1-0.3-2-0.7-3-1c-3.7-1.1-7.3-2.5-10.6-4.6
		c-6.9-4.4-7.8-10.3-5.5-17.4c1.1-3.5,4-5.3,7.5-6c2.5-0.5,5-0.8,7.5-1.3c0.8-0.2,1.6-0.5,2.5-0.7c-0.9,2.3-1.8,4.5-2.6,6.7
		c-0.1,0.3,0,0.9,0.3,1.2c0.9,0.9,1.8,1.7,2.8,2.4c5.9,4.2,12.6,6.6,19.4,8.6c7.5,2.1,15.1,3.7,22.9,4.3c4.8,0.4,9.7,0.5,14.6,0.8
		c0.7,0,1.1-0.2,1.3-1c0.8-3.3,1.7-6.5,2.6-9.8c0-0.2,0-0.4,0-0.6c-0.6-0.1-1.2-0.1-1.8-0.2c-5.9-1.1-11.8-2-17.6-3.3
		c-10.2-2.3-20.3-5.1-29.8-9.7c-3.1-1.5-6.1-3.4-9.1-5.1c0.7-1.5,1.3-2.6,1.9-3.8c2.6-5,5.1-10.1,8.6-14.6c1.3-1.6,2.9-3.5,4.8-4.2
		c6.5-2.6,12.9-2.1,18.7,2.1c3,2.1,6.1,3.9,9.8,4.3c1.6,0.2,3.2,0.3,4.8,0.4c3.4,0.3,6.3,1.7,8.5,4.2c3.3,3.7,3.9,8.2,3.4,13
		c-0.5,4.6-1,9.2-1.5,13.9c0,0.3,0.4,0.9,0.7,1.1c0.8,0.4,1.8,0.6,2.6,1c3.6,1.6,6.8,3.6,9.4,6.7c3.3,4,2.8,8.1-1.3,11.3
		c-3.4,2.6-7.4,4.2-11.6,4.7c-5.1,0.6-10.3,1-15.5,1.3c-13.7,0.8-27.2-0.3-40.5-3.5C122.1,601.3,121.6,601.3,121.1,601.2z"/>
</g>
<g class="st7">
	<path class="st6" d="M211.3,575.3c-0.3-0.2-0.6-0.4-1-0.7c-0.3-0.3-0.7-0.6-1-0.8c-1.3-1-2.4-2.1-3.4-3.4c-2-2.8-1.3-5.4,0.8-8.1
		c1-1.3,2.5-1.7,4-1.5c1.1,0.1,2.1,0.3,3.2,0.4c0.3,0,0.7,0,1.1,0c-0.8,0.9-1.5,1.7-2.2,2.5c-0.1,0.1-0.1,0.4-0.1,0.5
		c0.2,0.5,0.4,1,0.7,1.4c1.6,2.6,3.8,4.5,6.2,6.2c2.6,1.9,5.3,3.6,8.3,4.9c1.8,0.8,3.7,1.5,5.6,2.3c0.3,0.1,0.5,0.1,0.7-0.2
		c0.9-1.3,1.8-2.6,2.7-3.8c0-0.1,0.1-0.2,0.1-0.3c-0.2-0.1-0.5-0.2-0.7-0.3c-2.1-1.2-4.3-2.4-6.4-3.7c-3.6-2.3-7.2-4.9-10.1-8.1
		c-1-1.1-1.8-2.3-2.7-3.4c0.5-0.5,1-1,1.4-1.4c1.9-1.8,3.7-3.6,5.9-5.1c0.8-0.5,1.7-1.1,2.6-1.2c3-0.2,5.4,0.8,7,3.4
		c0.8,1.3,1.7,2.4,3.1,3.1c0.6,0.3,1.2,0.5,1.8,0.8c1.3,0.6,2.2,1.6,2.7,2.9c0.7,2,0.2,4-0.8,6c-1,1.9-2,3.8-2.9,5.7
		c-0.1,0.1,0,0.4,0.1,0.5c0.3,0.3,0.6,0.5,0.9,0.8c1.1,1.2,2.1,2.5,2.6,4.1c0.6,2.1-0.3,3.8-2.4,4.6c-1.8,0.7-3.6,0.8-5.4,0.4
		c-2.1-0.4-4.2-1-6.3-1.5c-5.5-1.5-10.7-3.8-15.4-6.9C211.7,575.4,211.5,575.4,211.3,575.3z"/>
</g>
</svg>
